<svg width="12" height="13" viewBox="0 0 12 13" fill="none" xmlns="http://www.w3.org/2000/svg">
<g clip-path="url(#clip0_74_270)">
<g filter="url(#filter0_d_74_270)">
<path d="M2.5 8H2C1.73478 8 1.48043 7.89464 1.29289 7.70711C1.10536 7.51957 1 7.26522 1 7V2.5C1 2.23478 1.10536 1.98043 1.29289 1.79289C1.48043 1.60536 1.73478 1.5 2 1.5H6.5C6.76522 1.5 7.01957 1.60536 7.20711 1.79289C7.39464 1.98043 7.5 2.23478 7.5 2.5V3M5.5 5H10C10.5523 5 11 5.44772 11 6V10.5C11 11.0523 10.5523 11.5 10 11.5H5.5C4.94772 11.5 4.5 11.0523 4.5 10.5V6C4.5 5.44772 4.94772 5 5.5 5Z" stroke="white" stroke-linecap="round" stroke-linejoin="round" shape-rendering="crispEdges"/>
</g>
</g>
<defs>
<filter id="filter0_d_74_270" x="0" y="0.5" width="12" height="12" filterUnits="userSpaceOnUse" color-interpolation-filters="sRGB">
<feFlood flood-opacity="0" result="BackgroundImageFix"/>
<feColorMatrix in="SourceAlpha" type="matrix" values="0 0 0 0 0 0 0 0 0 0 0 0 0 0 0 0 0 0 127 0" result="hardAlpha"/>
<feOffset/>
<feGaussianBlur stdDeviation="0.25"/>
<feComposite in2="hardAlpha" operator="out"/>
<feColorMatrix type="matrix" values="0 0 0 0 1 0 0 0 0 1 0 0 0 0 1 0 0 0 1 0"/>
<feBlend mode="normal" in2="BackgroundImageFix" result="effect1_dropShadow_74_270"/>
<feBlend mode="normal" in="SourceGraphic" in2="effect1_dropShadow_74_270" result="shape"/>
</filter>
<clipPath id="clip0_74_270">
<rect width="12" height="12" fill="white" transform="translate(0 0.5)"/>
</clipPath>
</defs>
</svg>
